<svg xmlns="http://www.w3.org/2000/svg" version="1.1" xmlns:xlink="http://www.w3.org/1999/xlink" xmlns:svgjs="http://svgjs.dev/svgjs" width="1500" height="1500" viewBox="0 0 1500 1500"><rect width="1500" height="1500" fill="#ffffff"></rect><g transform="matrix(0.6666666666666666,0,0,0.6666666666666666,249.39393939393938,639.8934863163942)"><svg viewBox="0 0 396 87" data-background-color="#ffffff" preserveAspectRatio="xMidYMid meet" height="329" width="1500" xmlns="http://www.w3.org/2000/svg" xmlns:xlink="http://www.w3.org/1999/xlink"><g id="tight-bounds" transform="matrix(1,0,0,1,0.2400000000000091,0.17446819364914745)"><svg viewBox="0 0 395.52 86.6510636127017" height="86.6510636127017" width="395.52"><g><svg viewBox="0 0 395.52 86.6510636127017" height="86.6510636127017" width="395.52"><g><svg viewBox="0 0 395.52 86.6510636127017" height="86.6510636127017" width="395.52"><g id="textblocktransform"><svg viewBox="0 0 395.52 86.6510636127017" height="86.6510636127017" width="395.52" id="textblock"><g><svg viewBox="0 0 395.52 86.6510636127017" height="86.6510636127017" width="395.52"><rect width="395.52" height="86.6510636127017" x="0" y="0" opacity="1" fill="#0074d9" data-fill-palette-color="tertiary"></rect><g transform="matrix(1,0,0,1,23.607599999999998,23.60759999999999)"><svg width="348.3048" viewBox="2.8 -35.5 384.17 43.5" height="39.435863612701716" data-palette-color="#ffffff"><path d="M13.35 0.6L13.35 0.6Q8.6 0.6 5.7-2.78 2.8-6.15 2.8-12.2L2.8-12.2Q2.8-16.15 4.38-19.03 5.95-21.9 8.45-23.48 10.95-25.05 13.75-25.05L13.75-25.05Q15.9-25.05 17.6-24.25 19.3-23.45 20.75-22L20.75-22 20.9-22 20.65-26.35 20.65-35.45 25.6-35.45 25.6 0 21.55 0 21.15-3 21-3Q19.55-1.55 17.55-0.48 15.55 0.6 13.35 0.6ZM14.5-3.5L14.5-3.5Q16.15-3.5 17.68-4.33 19.2-5.15 20.65-6.8L20.65-6.8 20.65-18.4Q19.2-19.75 17.75-20.33 16.3-20.9 14.85-20.9L14.85-20.9Q12.95-20.9 11.38-19.85 9.8-18.8 8.85-16.85 7.9-14.9 7.9-12.25L7.9-12.25Q7.9-8.05 9.65-5.78 11.4-3.5 14.5-3.5ZM46.5 0.6L46.5 0.6Q42.8 0.6 39.77-0.9 36.75-2.4 35-5.3 33.25-8.2 33.25-12.25L33.25-12.25Q33.25-16.25 35.02-19.1 36.8-21.95 39.65-23.5 42.5-25.05 45.75-25.05L45.75-25.05Q49.35-25.05 51.85-23.58 54.35-22.1 55.67-19.53 57-16.95 57-13.5L57-13.5Q57-12.75 56.95-12.03 56.9-11.3 56.8-10.8L56.8-10.8 36.7-10.8 36.7-14.45 53.7-14.45 52.6-13.25Q52.6-17.2 50.8-19.18 49-21.15 45.9-21.15L45.9-21.15Q43.75-21.15 41.97-20.13 40.2-19.1 39.15-17.13 38.1-15.15 38.1-12.25L38.1-12.25Q38.1-9.25 39.27-7.28 40.45-5.3 42.47-4.3 44.5-3.3 47.15-3.3L47.15-3.3Q49.2-3.3 50.9-3.88 52.6-4.45 54.25-5.45L54.25-5.45 56-2.3Q54.15-1.05 51.75-0.23 49.35 0.6 46.5 0.6ZM77.9 0L72.3 0 62.3-24.45 67.3-24.45 72.45-11.15Q73.15-9.35 73.8-7.53 74.45-5.7 75.05-3.9L75.05-3.9 75.25-3.9Q75.9-5.7 76.5-7.53 77.09-9.35 77.8-11.15L77.8-11.15 82.95-24.45 87.7-24.45 77.9 0ZM104.99-16.85L104.99-16.85Q103.09-16.85 101.79-18.15 100.49-19.45 100.49-21.5L100.49-21.5Q100.49-23.55 101.79-24.85 103.09-26.15 104.99-26.15L104.99-26.15Q106.94-26.15 108.22-24.85 109.49-23.55 109.49-21.5L109.49-21.5Q109.49-19.45 108.22-18.15 106.94-16.85 104.99-16.85ZM104.99 0.6L104.99 0.6Q103.09 0.6 101.79-0.7 100.49-2 100.49-4.05L100.49-4.05Q100.49-6.1 101.79-7.4 103.09-8.7 104.99-8.7L104.99-8.7Q106.94-8.7 108.22-7.4 109.49-6.1 109.49-4.05L109.49-4.05Q109.49-2 108.22-0.7 106.94 0.6 104.99 0.6ZM128.94 8L124.64 8 141.04-35.5 145.34-35.5 128.94 8ZM158.94 8L154.64 8 171.04-35.5 175.34-35.5 158.94 8ZM195.29 0.6L195.29 0.6Q191.84 0.6 188.69-0.55 185.54-1.7 183.34-3.2L183.34-3.2 185.54-6.4Q187.69-4.9 190.21-4.05 192.74-3.2 195.94-3.2L195.94-3.2Q198.74-3.2 200.11-4.2 201.49-5.2 201.49-6.55L201.49-6.55Q201.49-7.2 201.21-7.75 200.94-8.3 200.21-8.78 199.49-9.25 198.06-9.7 196.64-10.15 194.34-10.65L194.34-10.65Q189.49-11.65 187.16-13.4 184.84-15.15 184.84-17.9L184.84-17.9Q184.84-21 187.51-23.03 190.19-25.05 195.29-25.05L195.29-25.05Q198.19-25.05 200.81-24.08 203.44-23.1 205.29-21.85L205.29-21.85 202.99-18.75Q201.24-19.9 199.16-20.58 197.09-21.25 194.84-21.25L194.84-21.25Q192.99-21.25 191.89-20.83 190.79-20.4 190.29-19.7 189.79-19 189.79-18.15L189.79-18.15Q189.79-16.75 191.36-15.98 192.94-15.2 196.49-14.45L196.49-14.45Q200.49-13.6 202.66-12.55 204.84-11.5 205.66-10.13 206.49-8.75 206.49-6.85L206.49-6.85Q206.49-4.8 205.19-3.1 203.89-1.4 201.41-0.4 198.94 0.6 195.29 0.6ZM226.48 0.6L226.48 0.6Q222.78 0.6 219.76-0.9 216.73-2.4 214.98-5.3 213.23-8.2 213.23-12.25L213.23-12.25Q213.23-16.25 215.01-19.1 216.78-21.95 219.63-23.5 222.48-25.05 225.73-25.05L225.73-25.05Q229.33-25.05 231.83-23.58 234.33-22.1 235.66-19.53 236.98-16.95 236.98-13.5L236.98-13.5Q236.98-12.75 236.93-12.03 236.88-11.3 236.78-10.8L236.78-10.8 216.68-10.8 216.68-14.45 233.68-14.45 232.58-13.25Q232.58-17.2 230.78-19.18 228.98-21.15 225.88-21.15L225.88-21.15Q223.73-21.15 221.96-20.13 220.18-19.1 219.13-17.13 218.08-15.15 218.08-12.25L218.08-12.25Q218.08-9.25 219.26-7.28 220.43-5.3 222.46-4.3 224.48-3.3 227.13-3.3L227.13-3.3Q229.18-3.3 230.88-3.88 232.58-4.45 234.23-5.45L234.23-5.45 235.98-2.3Q234.13-1.05 231.73-0.23 229.33 0.6 226.48 0.6ZM252.03 0.6L252.03 0.6Q249.68 0.6 247.81-0.28 245.93-1.15 244.86-2.73 243.78-4.3 243.78-6.45L243.78-6.45Q243.78-10.55 247.81-12.7 251.83-14.85 261.03-15.55L261.03-15.55Q260.98-17.05 260.36-18.3 259.73-19.55 258.41-20.28 257.08-21 254.93-21L254.93-21Q253.43-21 251.98-20.63 250.53-20.25 249.18-19.6 247.83-18.95 246.63-18.25L246.63-18.25 244.78-21.6Q246.13-22.4 247.88-23.23 249.63-24.05 251.66-24.55 253.68-25.05 255.78-25.05L255.78-25.05Q259.18-25.05 261.43-23.8 263.68-22.55 264.83-20.25 265.98-17.95 265.98-14.7L265.98-14.7 265.98 0 261.93 0 261.53-3.15 261.38-3.15Q259.43-1.65 256.98-0.53 254.53 0.6 252.03 0.6ZM253.43-3.35L253.43-3.35Q255.38-3.35 257.28-4.2 259.18-5.05 261.03-6.6L261.03-6.6 261.03-12.4Q256.23-12.05 253.51-11.3 250.78-10.55 249.68-9.43 248.58-8.3 248.58-6.8L248.58-6.8Q248.58-5.6 249.26-4.83 249.93-4.05 251.03-3.7 252.13-3.35 253.43-3.35ZM289.63 0.6L289.63 0.6Q285.93 0.6 283.8-0.7 281.68-2 280.78-4.3 279.88-6.6 279.88-9.65L279.88-9.65 279.88-20.45 273.18-20.45 273.18-24.15 280.08-24.45 280.73-32.15 284.83-32.15 284.83-24.45 296.38-24.45 296.38-20.45 284.83-20.45 284.83-9.65Q284.83-7.6 285.38-6.18 285.93-4.75 287.23-4.08 288.53-3.4 290.73-3.4L290.73-3.4Q292.38-3.4 293.73-3.68 295.08-3.95 296.33-4.4L296.33-4.4 297.33-0.8Q295.68-0.25 293.8 0.18 291.93 0.6 289.63 0.6ZM319.63 0.6L319.63 0.6Q315.93 0.6 313.8-0.7 311.68-2 310.78-4.3 309.88-6.6 309.88-9.65L309.88-9.65 309.88-20.45 303.18-20.45 303.18-24.15 310.08-24.45 310.73-32.15 314.83-32.15 314.83-24.45 326.38-24.45 326.38-20.45 314.83-20.45 314.83-9.65Q314.83-7.6 315.38-6.18 315.93-4.75 317.23-4.08 318.53-3.4 320.73-3.4L320.73-3.4Q322.38-3.4 323.73-3.68 325.08-3.95 326.33-4.4L326.33-4.4 327.33-0.8Q325.68-0.25 323.8 0.18 321.93 0.6 319.63 0.6ZM350.12 0.6L350.12 0.6Q346.07 0.6 343.92-1.78 341.77-4.15 341.77-8.55L341.77-8.55 341.77-31.45 333.62-31.45 333.62-35.45 346.72-35.45 346.72-8.25Q346.72-5.7 348.02-4.58 349.32-3.45 351.27-3.45L351.27-3.45Q352.27-3.45 353.35-3.7 354.42-3.95 355.72-4.5L355.72-4.5 356.92-0.8Q355.17-0.2 353.7 0.2 352.22 0.6 350.12 0.6ZM376.47 0.6L376.47 0.6Q372.77 0.6 369.75-0.9 366.72-2.4 364.97-5.3 363.22-8.2 363.22-12.25L363.22-12.25Q363.22-16.25 365-19.1 366.77-21.95 369.62-23.5 372.47-25.05 375.72-25.05L375.72-25.05Q379.32-25.05 381.82-23.58 384.32-22.1 385.65-19.53 386.97-16.95 386.97-13.5L386.97-13.5Q386.97-12.75 386.92-12.03 386.87-11.3 386.77-10.8L386.77-10.8 366.67-10.8 366.67-14.45 383.67-14.45 382.57-13.25Q382.57-17.2 380.77-19.18 378.97-21.15 375.87-21.15L375.87-21.15Q373.72-21.15 371.95-20.13 370.17-19.1 369.12-17.13 368.07-15.15 368.07-12.25L368.07-12.25Q368.07-9.25 369.25-7.28 370.42-5.3 372.45-4.3 374.47-3.3 377.12-3.3L377.12-3.3Q379.17-3.3 380.87-3.88 382.57-4.45 384.22-5.45L384.22-5.45 385.97-2.3Q384.12-1.05 381.72-0.23 379.32 0.6 376.47 0.6Z" opacity="1" transform="matrix(1,0,0,1,0,0)" fill="#ffffff" class="wordmark-text-0" data-fill-palette-color="quaternary" id="text-0"></path></svg></g></svg></g></svg></g></svg></g></svg></g><defs></defs></svg><rect width="395.52" height="86.6510636127017" fill="none" stroke="none" visibility="hidden"></rect></g></svg></g></svg>